<svg xmlns="http://www.w3.org/2000/svg" xmlns:xlink="http://www.w3.org/1999/xlink" version="1.1" width="256" height="256" viewBox="0 0 256 256" xml:space="preserve">
<g style="stroke: none; stroke-width: 0; stroke-dasharray: none; stroke-linecap: butt; stroke-linejoin: miter; stroke-miterlimit: 10; fill: none; fill-rule: nonzero; opacity: 1;" transform="translate(1.4065934065934016 1.4065934065934016) scale(2.81 2.81)">
	<circle cx="45" cy="45" r="45" style="fill: rgb(34,158,69);"/>
	<path d="M 45.168 68.369 l 35.957 -23.337 l -36.175 -23.4 L 8.875 45.088 L 45.168 68.369 z" style="fill: rgb(248,229,9);"/>
	<path d="M 60.835 45.001 c 0 8.388 -6.81 15.187 -15.212 15.187 c -8.401 0 -15.212 -6.8 -15.212 -15.187 s 6.811 -15.187 15.212 -15.187 C 54.025 29.813 60.835 36.613 60.835 45.001 z" style="fill: rgb(43,73,163);"/>
	<path d="M 59.833 50.464 c 0.232 -0.606 0.531 -1.521 0.69 -2.36 c -8.079 -7.097 -17.086 -10.733 -28.467 -9.985 c -0.408 0.782 -0.735 1.601 -1.01 2.487 C 44.531 39.32 54.415 45.29 59.833 50.464 z" style="fill: rgb(255,255,255);"/>
</g>
</svg>